<svg version="1.1" id="Layer_1" xmlns="http://www.w3.org/2000/svg" xmlns:xlink="http://www.w3.org/1999/xlink"
      viewBox="0 0 500 500" xml:space="preserve" fill="#670249">
	 <g transform="translate(-263.3, -33.3)">
		<path opacity="1.000000" stroke="none"
			d="
		M558.921692,114.966187
			C564.184448,117.933182 569.057373,120.845810 573.401917,124.504517
			C575.601868,126.357201 577.627808,126.472839 580.259460,125.453415
			C588.792786,122.147903 594.632202,116.416794 596.547119,107.367065
			C597.202576,104.269669 598.564331,103.269958 601.512207,103.094368
			C613.041321,102.407639 614.145630,103.832214 610.447449,114.844795
			C607.292053,124.241287 601.489563,131.451004 593.008667,136.568756
			C591.480591,137.490814 589.587646,137.986862 588.508789,140.027878
			C588.840881,140.595306 589.122009,141.401230 589.662842,141.952286
			C607.160706,159.783020 610.355774,181.007294 604.596741,204.403885
			C602.088684,214.593170 597.208496,223.611069 591.365479,232.216553
			C588.869995,235.891754 586.431702,236.236435 583.461975,232.910568
			C582.800415,232.169632 582.047668,231.471649 581.226074,230.918625
			C577.430176,228.363663 577.288635,225.817276 579.879395,221.856628
			C587.984375,209.466034 592.727417,195.906891 591.692444,180.837708
			C590.230469,159.550797 574.175598,142.519608 551.059631,145.146774
			C536.106995,146.846161 522.616699,160.640533 520.347778,176.997940
			C520.040100,179.215866 520.670044,182.381165 517.835144,182.930603
			C513.977173,183.678314 509.826263,184.088593 506.040802,182.553802
			C504.383728,181.881973 504.863922,179.622055 504.692566,177.994278
			C502.954102,161.477859 489.741455,147.181152 474.397278,145.213959
			C455.428589,142.782120 438.681030,153.999222 434.576935,172.869995
			C430.342987,192.337799 435.667908,209.827103 447.962433,225.222809
			C452.756042,231.225555 458.515442,236.139801 465.236298,240.142929
			C480.464264,249.213104 485.014862,267.334625 475.950012,282.646912
			C473.687958,286.467957 474.013214,288.734894 476.608582,292.169098
			C482.552643,300.034271 483.750366,309.181549 481.982727,318.775543
			C481.773956,319.908600 481.611450,321.053436 481.507233,322.200073
			C481.482361,322.473907 481.778015,322.776886 482.048309,323.305023
			C485.021332,324.008820 487.788727,322.758545 490.481171,321.627563
			C514.413574,311.574890 529.071960,293.353424 536.377747,268.877228
			C537.940308,263.642395 538.860413,258.180817 539.649536,252.761520
			C540.244873,248.673050 541.777283,245.778595 546.082947,245.030457
			C550.442078,244.273026 553.821533,245.472656 556.188354,249.564468
			C564.527588,263.981293 572.932617,278.361847 581.498352,292.644775
			C584.253906,297.239502 586.536377,302.221130 590.308472,306.358826
			C592.373169,304.251068 591.658875,302.139496 591.664795,300.246307
			C591.724548,281.083893 591.839478,261.919617 591.610596,242.759781
			C591.554871,238.094513 593.121643,236.300629 597.637085,236.812683
			C598.789001,236.943283 599.979797,236.947281 601.132019,236.820923
			C605.869385,236.301376 607.115601,238.673477 607.095642,243.040131
			C606.976929,269.032990 607.041138,295.026642 607.045410,321.020050
			C607.046204,325.851929 606.884766,330.691681 607.109802,335.513245
			C607.302979,339.654449 606.040894,341.235687 601.513977,341.511230
			C595.187561,341.896210 591.626404,339.657227 588.453674,334.170898
			C578.039856,316.162933 567.040710,298.493469 555.372498,280.763916
			C555.372498,287.422272 555.371155,294.080658 555.372803,300.739014
			C555.375732,312.901184 555.276917,325.064850 555.451721,337.224548
			C555.499756,340.565277 554.412415,341.566803 551.133362,341.451416
			C538.471069,341.005890 539.894348,343.048004 539.872314,330.282043
			C539.855164,320.364624 539.868835,310.447144 539.868835,300.361267
			C537.458374,300.813538 537.021606,302.392944 536.201782,303.553864
			C521.854553,323.869751 502.454285,336.401154 477.981842,340.687134
			C466.302307,342.732666 454.409363,342.166290 442.587402,342.130676
			C436.422119,342.112122 430.247131,341.909973 424.094696,342.190155
			C419.521515,342.398376 417.868805,340.630157 417.928619,336.117157
			C418.098572,323.288910 417.988708,310.456909 417.990753,297.626404
			C417.993652,279.463776 418.114014,261.299896 417.923004,243.139297
			C417.873291,238.413528 419.368713,236.392548 424.235901,236.774033
			C428.124725,237.078842 432.056549,236.835587 436.786346,236.835587
			C414.449097,203.765610 408.256287,171.770279 436.836548,139.737778
			C436.409637,138.446136 434.755920,138.187027 433.511414,137.508118
			C422.057526,131.259720 415.503357,121.567520 412.988068,108.887726
			C412.180481,104.816605 413.328369,102.783173 417.703186,103.082420
			C419.195221,103.184486 420.713379,103.200081 422.198517,103.048431
			C425.831451,102.677475 427.619965,104.205849 428.416504,107.825546
			C430.322937,116.489273 435.755585,122.085754 444.068848,125.172577
			C447.441010,126.424690 449.881989,125.838234 452.709747,123.658157
			C471.649841,109.056099 493.281860,102.363098 517.060852,103.185165
			C531.731506,103.692352 545.525085,108.143967 558.921692,114.966187
		M505.490570,145.015686
			C507.784668,147.762115 510.078766,150.508545 512.697937,153.644180
			C522.229309,139.414078 535.531128,131.939560 552.282227,129.221085
			C528.472229,114.208527 492.604614,115.250504 472.954376,129.241867
			C485.442078,130.942780 496.091492,135.934570 505.490570,145.015686
		M460.250702,298.021118
			C451.740387,294.318329 442.930725,296.958191 433.430969,296.063293
			C433.430969,305.715485 433.365570,314.653870 433.471069,323.590210
			C433.502441,326.247650 435.649200,326.645844 437.771729,326.664215
			C442.266632,326.703156 446.762299,326.717804 451.257202,326.683899
			C458.783051,326.627136 464.517761,322.825134 466.801117,316.438202
			C469.226227,309.654755 467.233459,303.560089 460.250702,298.021118
		M453.823395,280.778137
			C461.395111,278.759735 466.366913,272.048309 465.494751,265.023010
			C464.556732,257.467224 458.792023,252.375229 450.717834,252.147598
			C446.222778,252.020889 441.720306,252.181320 437.222870,252.108307
			C434.491852,252.063980 433.294006,253.233261 433.326935,255.992691
			C433.408508,262.822937 433.381134,269.654633 433.374512,276.485748
			C433.371521,279.574310 434.842682,281.094696 437.962616,281.046021
			C442.958801,280.968079 447.955627,280.932739 453.823395,280.778137
		z"/>
		<path opacity="1.000000" stroke="none"
			d="
		M288.606262,448.903809
			C288.618317,426.607910 288.768158,404.799500 288.531860,382.995239
			C288.480469,378.252563 290.136841,376.914368 294.556091,376.974365
			C306.372284,377.134857 318.192688,376.959259 330.011139,376.995361
			C334.915100,377.010345 339.601410,378.315918 343.959625,380.429565
			C354.946167,385.757843 358.370728,399.849640 351.315918,409.833405
			C350.186127,411.432281 348.386841,412.571808 347.796021,415.037964
			C351.807465,417.859497 355.129761,421.426331 356.871857,426.311920
			C361.772980,440.056824 353.433136,452.961548 338.156860,455.270111
			C328.544312,456.722687 318.884216,455.883270 309.246490,456.083466
			C304.587616,456.180237 299.924652,456.111816 295.263824,456.078491
			C288.690918,456.031494 288.691040,456.015778 288.606262,448.903809
		M311.799011,440.055389
			C317.768188,440.060455 323.739685,440.172150 329.705872,440.040833
			C335.809937,439.906494 339.233612,437.051636 339.418701,432.273010
			C339.605347,427.454926 335.925629,423.858063 329.962799,423.417542
			C326.333557,423.149384 322.671021,423.313202 319.023438,423.315125
			C306.367706,423.321747 305.976807,423.822083 307.209534,436.387756
			C307.453857,438.878174 308.472198,440.007965 311.799011,440.055389
		M308.476746,408.079102
			C315.747894,409.351929 323.003540,408.531494 330.213196,407.651459
			C334.003326,407.188782 335.862213,404.508881 335.914520,400.657257
			C335.965973,396.867584 334.367767,394.289948 330.561859,393.350922
			C323.857361,391.696747 317.042786,392.522675 310.267639,392.500916
			C308.215637,392.494324 307.227234,393.634827 307.339600,395.654358
			C307.559113,399.598785 306.638794,403.594238 308.476746,408.079102
		z"/>
		<path opacity="1.000000" stroke="none"
			d="
		M467.960999,421.006042
			C463.299957,415.171967 459.482910,409.109558 454.437805,403.916077
			C452.463135,405.526733 453.206787,407.490967 453.198334,409.161469
			C453.129120,422.813873 453.005646,436.469818 453.258789,450.117981
			C453.351135,455.097748 451.328644,456.357147 446.726624,456.265869
			C442.287140,456.177826 439.616486,455.696655 439.680176,450.101929
			C439.932190,427.960541 439.724243,405.814178 439.791260,383.669983
			C439.798187,381.374420 438.549072,377.867371 441.833527,377.245575
			C445.523132,376.547028 449.697998,375.450256 452.785675,379.549652
			C462.399109,392.313080 472.161743,404.964172 481.879089,417.649231
			C485.111359,421.868561 488.381622,426.058807 492.319733,431.147827
			C492.475494,428.619995 492.648193,427.103912 492.650055,425.587677
			C492.667969,410.935699 492.741547,396.282806 492.589996,381.632385
			C492.555969,378.343689 493.267120,376.262024 496.911194,376.871277
			C500.309753,377.439453 505.838806,374.491943 505.874146,381.353516
			C505.995026,404.828613 505.949219,428.304596 505.937805,451.780243
			C505.936890,453.669617 505.653351,455.742615 503.276917,455.921509
			C499.547638,456.202209 495.551910,457.231476 492.696014,453.463409
			C488.472931,447.891541 484.201813,442.356079 479.963470,436.795746
			C476.027649,431.632263 472.107941,426.456482 467.960999,421.006042
		z"/>
		<path opacity="1.000000" stroke="none"
			d="
		M380.674866,453.562683
			C366.074280,445.045776 360.435913,430.125702 365.623779,414.431732
			C369.913879,401.453644 384.423981,392.529694 398.794128,394.031403
			C419.475891,396.192749 431.672729,411.956726 428.002014,431.781616
			C424.616425,450.066589 405.755615,461.017120 386.635925,455.757660
			C384.720520,455.230804 382.882080,454.424133 380.674866,453.562683
		M401.522461,410.819916
			C393.799408,408.451660 387.382599,410.766846 384.217865,417.063446
			C380.548767,424.363464 382.378357,434.067749 388.232422,438.357117
			C393.892792,442.504578 402.430908,441.335297 406.612518,435.991455
			C411.937164,429.186859 410.727936,414.661285 401.522461,410.819916
		z"/>
		<path opacity="1.000000" stroke="none"
			d="
		M656.423157,456.726318
			C632.312683,455.169128 621.597717,431.639709 630.968445,410.940125
			C635.874023,400.103851 647.485107,393.779358 659.562988,394.897644
			C671.715332,396.022827 681.135193,404.211853 684.268494,416.374969
			C687.623291,429.397919 686.945679,430.300079 673.810120,430.298798
			C664.650696,430.297882 655.491089,430.268860 646.332031,430.322845
			C644.743774,430.332184 642.738159,429.659058 641.727844,431.373932
			C640.548157,433.376190 641.820740,435.225800 642.864746,436.922272
			C648.460388,446.014282 661.731384,448.383972 671.122559,441.995148
			C675.488220,439.025238 679.232544,440.395874 681.031067,445.502411
			C681.791504,447.661530 680.245361,448.596954 679.056580,449.623535
			C672.678711,455.130981 665.141357,457.164154 656.423157,456.726318
		M670.421875,420.529816
			C672.441833,420.113495 672.465454,418.883301 672.036316,417.163452
			C670.697144,411.795776 665.068848,406.913940 659.160522,406.173523
			C651.773254,405.247772 645.688904,408.123077 642.774536,413.917053
			C640.600952,418.238220 641.902222,420.632751 646.746033,420.695160
			C654.369263,420.793488 661.995483,420.654633 670.421875,420.529816
		z"/>
		<path opacity="1.000000" stroke="none"
			d="
		M523.129272,442.682068
			C517.183044,431.786377 516.928894,420.924225 522.430237,410.371979
			C529.646606,396.530029 546.582886,390.944305 561.015564,397.057617
			C575.215210,403.072205 582.712585,419.973022 577.927307,435.398804
			C574.023376,447.983307 565.352905,455.248108 552.365601,456.627655
			C540.168335,457.923279 530.262695,453.385345 523.129272,442.682068
		M553.986328,444.658722
			C565.022949,441.095856 569.569763,427.046967 564.085632,415.953735
			C560.743958,409.194122 555.193176,405.829407 547.553223,406.288635
			C540.274963,406.726196 535.465942,410.649902 533.028198,417.324921
			C530.236389,424.969299 530.588562,432.560333 535.883179,438.998749
			C540.261963,444.323517 546.120850,446.834991 553.986328,444.658722
		z"/>
		<path opacity="1.000000" stroke="none"
			d="
		M695.169922,404.486359
			C703.935974,394.060333 715.038757,393.514618 726.861633,395.863922
			C728.639160,396.217133 730.340515,396.994537 732.048218,397.650909
			C738.776062,400.236816 738.993469,401.138519 735.478210,407.300446
			C733.991699,409.906250 732.450134,410.373932 729.846680,409.031464
			C724.670715,406.362488 719.097351,405.520477 713.351318,406.290131
			C709.984375,406.741119 706.542725,407.568359 706.062134,411.783600
			C705.568176,416.115845 708.311340,418.196899 712.061096,419.069550
			C715.618530,419.897400 719.250122,420.406982 722.849609,421.053558
			C734.517639,423.149536 740.572937,429.536346 740.282898,439.370941
			C740.129272,444.583649 737.855225,448.633026 733.677673,451.632843
			C723.695312,458.801056 703.281677,458.525421 693.325684,451.189117
			C689.145752,448.109009 693.077271,445.629456 693.884460,442.987000
			C694.755493,440.135559 696.665405,439.549774 699.291016,441.103821
			C706.315125,445.261169 713.804810,446.625122 721.859924,444.909363
			C724.964355,444.248077 727.213562,442.760010 727.546021,439.523468
			C727.898499,436.092468 725.449036,434.246765 722.647400,433.451202
			C717.381958,431.955994 711.947510,431.064240 706.658569,429.641724
			C693.777649,426.177277 689.587158,417.162140 695.169922,404.486359
		z"/>
		<path opacity="1.000000" stroke="none"
			d="
		M620.230286,398.227203
			C620.457458,406.305145 620.457458,406.305145 612.719055,406.321533
			C605.129822,406.337585 605.121765,406.337555 605.104858,414.027008
			C605.088379,421.519684 604.974121,429.014679 605.117310,436.504547
			C605.264465,444.205261 609.218750,447.257904 616.545288,444.711823
			C621.639343,442.941528 621.486877,446.696930 622.816345,449.281067
			C624.641724,452.828949 622.472900,454.225189 619.653992,455.032990
			C604.685364,459.322479 591.240173,455.481812 592.173828,432.319244
			C592.421814,426.168549 592.356384,420.004761 592.632263,413.855835
			C592.840820,409.208160 591.918213,405.897308 586.210022,406.287323
			C582.728699,406.525146 582.739197,403.869720 582.802795,401.480988
			C582.866516,399.086487 582.267517,395.556641 585.932739,395.910980
			C592.409119,396.537048 592.890930,393.111145 592.691406,388.123566
			C592.447021,382.014954 593.023865,381.916809 599.145081,381.655212
			C603.751343,381.458374 605.269958,383.152130 605.195435,387.721649
			C605.069519,395.430481 605.702454,395.730316 613.539185,395.765839
			C615.871155,395.776398 618.679077,394.713135 620.230286,398.227203
		z"/>
		<path opacity="1.000000" stroke="none"
			d="
		M560.113708,164.436401
			C570.429993,167.837830 575.169189,176.396545 572.356689,185.933548
			C569.659607,195.079575 560.522034,200.287399 551.193604,197.995285
			C542.300171,195.810043 536.658020,186.671677 538.636169,177.656403
			C540.787109,167.853668 549.317017,162.459167 560.113708,164.436401
		z"/>
		<path opacity="1.000000" stroke="none"
			d="
		M459.531769,195.707779
			C451.591827,189.220810 449.658936,181.109283 453.843597,172.948975
			C457.395264,166.023010 465.773621,162.188843 473.147888,164.103806
			C480.092499,165.907196 484.515228,170.432114 485.970154,177.289276
			C487.458008,184.301666 485.526855,190.636230 479.529724,194.969879
			C473.309937,199.464401 466.604156,199.650604 459.531769,195.707779
		z"/>
		<path opacity="1.000000" stroke="none"
			d="
		M526.216187,217.134506
			C521.677795,225.186890 517.303101,232.909714 512.221375,241.880737
			C504.557953,227.845642 497.550476,215.011841 489.945648,201.084015
			C505.362915,201.084015 519.606506,201.084015 534.868713,201.084015
			C531.934509,206.517883 529.157166,211.661423 526.216187,217.134506
		z"/>
	</g>
</svg>
