<svg width="86" height="81" viewBox="0 0 86 81" fill="none" xmlns="http://www.w3.org/2000/svg">
    <g filter="url(#filter0_d_193_41)">
        <path d="M8 10C8 7.79086 9.79086 6 12 6H74C76.2091 6 78 7.79086 78 10V67C78 69.2091 76.2091 71 74 71H12C9.79086 71 8 69.2091 8 67V10Z" fill="white" shape-rendering="crispEdges"/>
        <path d="M16 16C16 14.8954 16.8954 14 18 14H68C69.1046 14 70 14.8954 70 16C70 17.1046 69.1046 18 68 18H18C16.8954 18 16 17.1046 16 16Z" fill="#85B7EB"/>
        <path d="M16 25C16 23.8954 16.8954 23 18 23H68C69.1046 23 70 23.8954 70 25C70 26.1046 69.1046 27 68 27H18C16.8954 27 16 26.1046 16 25Z" fill="#B5D4F4"/>
        <path d="M16 34C16 32.8954 16.8954 32 18 32H46.4C47.5046 32 48.4 32.8954 48.4 34C48.4 35.1046 47.5046 36 46.4 36H18C16.8954 36 16 35.1046 16 34Z" fill="#B5D4F4"/>
        <path d="M16 43C16 41.8954 16.8954 41 18 41H68C69.1046 41 70 41.8954 70 43C70 44.1046 69.1046 45 68 45H18C16.8954 45 16 44.1046 16 43Z" fill="#B5D4F4"/>
        <path d="M16 52C16 50.8954 16.8954 50 18 50H46.4C47.5046 50 48.4 50.8954 48.4 52C48.4 53.1046 47.5046 54 46.4 54H18C16.8954 54 16 53.1046 16 52Z" fill="#85B7EB"/>
        <path d="M16 61C16 59.8954 16.8954 59 18 59H68C69.1046 59 70 59.8954 70 61C70 62.1046 69.1046 63 68 63H18C16.8954 63 16 62.1046 16 61Z" fill="#B5D4F4"/>
    </g>
    <defs>
        <filter id="filter0_d_193_41" x="0" y="0" width="86" height="81" filterUnits="userSpaceOnUse" color-interpolation-filters="sRGB">
            <feFlood flood-opacity="0" result="BackgroundImageFix"/>
            <feColorMatrix in="SourceAlpha" type="matrix" values="0 0 0 0 0 0 0 0 0 0 0 0 0 0 0 0 0 0 127 0" result="hardAlpha"/>
            <feOffset dy="2"/>
            <feGaussianBlur stdDeviation="4"/>
            <feComposite in2="hardAlpha" operator="out"/>
            <feColorMatrix type="matrix" values="0 0 0 0 0 0 0 0 0 0 0 0 0 0 0 0 0 0 0.08 0"/>
            <feBlend mode="normal" in2="BackgroundImageFix" result="effect1_dropShadow_193_41"/>
            <feBlend mode="normal" in="SourceGraphic" in2="effect1_dropShadow_193_41" result="shape"/>
        </filter>
    </defs>
</svg>
