<svg width="86" height="81" viewBox="0 0 54 64" fill="none" xmlns="http://www.w3.org/2000/svg">
    <mask id="path-1-inside-1_193_63" fill="white">
        <path d="M0 4C0 1.79086 1.79086 0 4 0H50C52.2091 0 54 1.79086 54 4V60C54 62.2091 52.2091 64 50 64H4C1.79086 64 0 62.2091 0 60V4Z"/>
    </mask>
    <path d="M0 4C0 1.79086 1.79086 0 4 0H50C52.2091 0 54 1.79086 54 4V60C54 62.2091 52.2091 64 50 64H4C1.79086 64 0 62.2091 0 60V4Z" fill="white"/>
    <path d="M4 0V0.8H50V0V-0.8H4V0ZM54 4H53.2V60H54H54.8V4H54ZM50 64V63.2H4V64V64.8H50V64ZM0 60H0.8V4H0H-0.8V60H0ZM4 64V63.2C2.23269 63.2 0.8 61.7673 0.8 60H0H-0.8C-0.8 62.651 1.34903 64.8 4 64.8V64ZM54 60H53.2C53.2 61.7673 51.7673 63.2 50 63.2V64V64.8C52.651 64.8 54.8 62.651 54.8 60H54ZM50 0V0.8C51.7673 0.8 53.2 2.23269 53.2 4H54H54.8C54.8 1.34903 52.651 -0.8 50 -0.8V0ZM4 0V-0.8C1.34903 -0.8 -0.8 1.34903 -0.8 4H0H0.8C0.8 2.23269 2.23269 0.8 4 0.8V0Z" fill="#D3D1C7" mask="url(#path-1-inside-1_193_63)"/>
    <path d="M14.2317 27.4328H21.7337V28.6538H14.2317V27.4328ZM17.2567 28.4998H18.7197V34.5498H17.2567V28.4998ZM28.7862 27.4328H30.5682L27.2022 31.3598L27.1582 31.4038L24.6612 34.5498H22.8792L26.3442 30.4248L26.3772 30.3918L28.7862 27.4328ZM24.7712 27.4328L27.1472 30.4138L27.1692 30.4468L30.6012 34.5498H28.7422L26.2782 31.3598L26.2452 31.3378L22.9892 27.4328H24.7712ZM31.7532 27.4328H39.2552V28.6538H31.7532V27.4328ZM34.7782 28.4998H36.2412V34.5498H34.7782V28.4998Z" fill="#888780"/>
    <mask id="path-4-inside-2_193_63" fill="white">
        <path d="M41.1992 0.799805H53.1992V12.7998H41.1992V0.799805Z"/>
    </mask>
    <path d="M53.1992 12.7998V24.7998H65.1992V12.7998H53.1992ZM53.1992 0.799805H41.1992V12.7998H53.1992H65.1992V0.799805H53.1992ZM53.1992 12.7998V0.799805H41.1992V12.7998V24.7998H53.1992V12.7998Z" fill="#D3D1C7" mask="url(#path-4-inside-2_193_63)"/>
</svg>
